<svg xmlns="http://www.w3.org/2000/svg" width="512" height="512" viewBox="0 0 512 512">
  <path fill-rule="evenodd" d="M448.556382,87.2996977 C488.056213,132.348933 512,191.378281 512,256 C512,397.384896 397.384896,512 256,512 C156.536245,512 70.32105,455.276174 27.9391048,372.413211 C30.3895019,375.199032 33.9615166,376.789479 37.7153788,376.705618 L47.5249126,376.481585 C50.5852256,376.411606 53.3755789,377.94187 55.0517562,380.501327 C66.9332272,398.639679 84.6424359,416.544066 105.233483,429.339567 C138.4413,449.966724 188.360709,428.225221 219.685902,406.291085 C231.719246,397.865247 241.015122,389.409069 245.549624,383.319988 C257.284322,367.584513 256.406865,337.158279 251.680593,313.920686 C247.626882,294.011212 240.630775,276.732127 231.793877,263.743862 C230.084363,261.230942 229.699956,258.117341 230.858859,255.30746 C233.611779,248.637136 238.661448,242.208083 245.734826,237.255251 C252.809023,232.301845 260.577445,229.755573 267.786234,229.450634 C270.822453,229.321838 273.616806,230.747977 275.394064,233.214683 C284.576643,245.960898 298.420862,258.444884 315.743198,269.063568 C335.962912,281.452536 364.252718,292.683215 383.054124,287.0383 C390.327453,284.86067 401.445092,279.02193 413.485808,270.59093 C444.811001,248.656793 482.312726,209.179256 474.28933,170.92388 C469.306652,147.198061 458.540576,124.43204 445.559803,107.063428 C443.727413,104.612132 443.244365,101.467495 444.356813,98.6156758 L447.922148,89.4757459 C448.192499,88.7825513 448.398542,88.0736347 448.541264,87.357153 Z M203.012888,259.191712 C216.461101,267.047912 228.776604,289.911943 234.375711,317.447105 C239.211666,341.186543 237.98656,363.934081 231.405016,372.767629 C217.745722,391.045858 148.222847,435.258265 114.557858,414.340835 C75.0235483,389.788553 51.5749817,346.125774 57.802741,331.708309 C60.1467903,326.277704 71.4216329,316.273475 87.08382,305.306694 C109.702246,289.469101 141.456305,271.634342 168.559598,262.726581 C192.598449,254.824362 201.006508,258.024422 203.012888,259.191712 Z M256,0 C318.985677,0 376.658566,22.7467538 421.251993,60.4735896 L399.899191,75.4268721 C399.184737,75.4107508 398.453228,75.2918183 397.748121,75.3326323 C375.21869,76.6576008 312.585077,123.90422 282.191381,162.528439 C279.448586,166.013997 277.00594,169.365078 274.861066,172.587006 C269.975452,179.930299 264.696902,187.038444 258.277505,193.0874 C250.175709,200.720903 240.866691,208.335403 230.546194,215.561893 C220.226516,222.787809 209.888747,228.931358 199.943804,233.934318 C192.064411,237.899924 183.578175,240.428765 175.005367,242.50794 C171.243581,243.420679 167.25998,244.569305 163.047928,245.954804 C116.37113,261.294705 50.5458936,303.997161 41.5916243,324.711213 C41.3102269,325.362378 41.1723698,326.091268 40.9412772,326.770689 L17.9476793,342.870979 C17.1224554,343.448807 16.4263078,344.142331 15.8658053,344.914299 C5.60444842,317.219585 0,287.264287 0,256 C0,114.615104 114.615104,0 256,0 Z M457.007401,174.556304 C465.155478,213.350635 399.819793,263.546455 377.977284,270.137843 C367.426263,273.300646 345.630166,266.671508 324.976958,254.008649 C301.016803,239.32881 283.744611,219.93549 280.961841,204.61493 C280.550596,202.329494 280.419822,193.334837 296.06725,173.448425 C325.91748,135.503834 384.327004,93.7993338 398.779614,92.9622778 C414.446804,92.0414091 447.457333,129.00883 457.007401,174.556304 Z"/>
</svg>
